<?xml version="1.0" encoding="utf-8"?>
<!-- Svg Vector Icons : http://www.onlinewebfonts.com/icon -->
<!DOCTYPE svg PUBLIC "-//W3C//DTD SVG 1.1//EN" "http://www.w3.org/Graphics/SVG/1.1/DTD/svg11.dtd">
<svg version="1.1" xmlns="http://www.w3.org/2000/svg" xmlns:xlink="http://www.w3.org/1999/xlink" x="0px" y="0px" viewBox="0 0 256 256" enable-background="new 0 0 256 256" xml:space="preserve">
<metadata> Svg Vector Icons : http://www.onlinewebfonts.com/icon </metadata>
<g><g><g><path fill="#000000" d="M93.9,124.7c32.9-28.3,59.8-45.1,80.4-55.7c12.7-27,30.3-50.2,34.2-53.7c-2.4,0.9-4.8,1.9-7.4,3c-20.8,9.2-80.7,43-123,91C8.4,188.5,7.7,216.5,11.1,218C17.3,220.7,28.4,181,93.9,124.7z"/><g><g><path fill="#000000" d="M237.7,54.5c11.5-25.9,11-41.5-0.9-44.5c-12.7-3.3-21.4,8.2-31.3,29.3C198,55,186.8,97,130.6,162.2c-56.6,65.8-96.5,77-93.8,83.3c1.5,3.4,29.6,2.7,109.3-67.4C194.5,135.6,228.4,75.4,237.7,54.5z"/></g></g></g><g></g><g></g><g></g><g></g><g></g><g></g><g></g><g></g><g></g><g></g><g></g><g></g><g></g><g></g><g></g></g></g>
</svg>