<?xml version="1.0" encoding="UTF-8"?><svg id="Layer_1" xmlns="http://www.w3.org/2000/svg" viewBox="0 0 24 24"><path d="M23.31689,4.77649c-.13965-.29297-.41302-.49994-.7323-.55463-.32123-.05566-.64636.04785-.87677.27826l-3.638,3.63831-2.20758-2.20776,3.638-3.63831c.22943-.22943.33392-.55658.27826-.87585-.05469-.32031-.26166-.59369-.55457-.73334C16.41193-.65753,13.16742.00354,10.75677,2.41541c-1.87463,1.87482-2.64014,4.54053-2.04749,7.13104.08301.36133-.01074.72162-.25092.96283l-7.43414,7.43469c-.66101.6601-1.02423,1.53796-1.02423,2.47241,0,.93347.36322,1.81134,1.02814,2.47534l.08691.08594c.68146.68152,1.57684,1.02234,2.47217,1.02234s1.79065-.34082,2.47217-1.02234l7.43414-7.43475c.23926-.24023.59753-.33203.96173-.25098,2.58838.59564,5.25391-.17188,7.12952-2.04761,2.40973-2.40991,3.07367-5.65466,1.73212-8.46783ZM20.17102,11.83038c-1.3855,1.38562-3.35388,1.95099-5.26953,1.51257-1.03595-.23828-2.09436.05756-2.82269.78699l-7.43317,7.43378c-.58197.58197-1.53296.58392-2.12073-.00391l-.08691-.08594c-.28314-.28314-.43835-.65814-.43835-1.0575,0-.40033.15521-.77533.43835-1.05847l7.43518-7.43573c.73029-.73138,1.02319-1.78693.78497-2.82294-.43744-1.91486.12793-3.88434,1.51239-5.26996,1.19513-1.19421,2.646-1.82202,4.0813-1.82202.22064,0,.44128.01562.66101.04492l-3.17126,3.17151c-.39056.39056-.39056,1.02332,0,1.41388l3.62134,3.6217c.39056.39056,1.02325.39056,1.41382,0l3.17126-3.17053c.22363,1.6424-.39838,3.36292-1.77698,4.74164Z"/></svg>