<?xml version="1.0" encoding="UTF-8"?><svg id="Layer_1" xmlns="http://www.w3.org/2000/svg" viewBox="0 0 24 24"><path d="M18,0H6c-1.6543,0-3,1.3457-3,3v18c0,1.6543,1.3457,3,3,3h12c1.6543,0,3-1.3457,3-3V3c0-1.6543-1.3457-3-3-3ZM19,21c0,.55176-.44824,1-1,1H6c-.55127,0-1-.44824-1-1V3c0-.55176.44873-1,1-1h12c.55176,0,1,.44824,1,1v18Z"/><path d="M14,16h-1v-7c0-.55273-.44775-1-1-1h-2c-.55225,0-1,.44727-1,1s.44775,1,1,1h1v6h-1c-.55225,0-1,.44727-1,1s.44775,1,1,1h4c.55273,0,1-.44727,1-1s-.44727-1-1-1Z"/><circle cx="12" cy="6" r="1"/></svg>