<?xml version="1.0" encoding="UTF-8"?><svg id="Layer_1" xmlns="http://www.w3.org/2000/svg" viewBox="0 0 24 24"><path d="M17.24415,1.87867C15.334.30422,12.82327-.32087,10.35355.15674c-3.27392.63583-5.73289,3.0561-6.41697,6.31438-.5542,2.63905.13965,5.28689,1.90283,7.26471.86877.9753,1.3471,2.22481,1.34747,3.51839,0,.00061-.00031.00104-.00031.00165v2.87444c0,.00085.00049.00159.00049.00244v1.57689c0,1.26288,1.02685,2.29037,2.28954,2.29037h5.04686c1.26269,0,2.29003-1.02749,2.29003-2.29037v-4.44888c0-1.30097.47558-2.54919,1.33984-3.51515,1.35156-1.51389,2.09667-3.46632,2.09667-5.49688,0-2.47399-1.0957-4.79561-3.00585-6.37005ZM14.81349,21.70963c0,.16018-.12988.29008-.29004.29008h-5.04686c-.15967,0-.28955-.1299-.28955-.29008v-.71202l5.62645-.00781v.71983ZM9.18656,18.99782v-.75646l2.82812-.042h2.79882v.79015l-5.62694.0083ZM12.00003,11.07139l-2.53661-2.5365c-.12012-.12013-.18603-.27934-.18603-.44928s.06592-.32915.18603-.44928c.12353-.12306.28613-.18557.44873-.18557s.32519.06251.44824.18557l.93213.93275c.37598.37505,1.03906.37505,1.41503,0l.93115-.93275c.24805-.24613.65137-.24808.89746,0,.24805.24711.24805.65146.00098.89857l-2.5371,2.5365ZM16.66212,12.4124c-.95434,1.06711-1.55816,2.38407-1.76403,3.78668h-1.89807v-3.29869l2.95214-2.95123c1.02539-1.02749,1.02539-2.69961,0-3.7271q-.00098,0-.00098-.00098c-1.02734-1.02554-2.69921-1.02456-3.72655.00098l-.22461.22464-.2251-.22464c-1.02685-1.02749-2.69775-1.02749-3.72557,0-1.02734,1.02749-1.02734,2.69961,0,3.7271l2.95067,2.95111v3.31346l-1.88427.02832c-.19971-1.41622-.81592-2.75137-1.7832-3.83649-1.33642-1.49924-1.86083-3.51222-1.43896-5.52423.51611-2.45641,2.37109-4.28089,4.84178-4.76142,1.88037-.36724,3.791.10939,5.23631,1.30194,1.44824,1.19353,2.27831,2.95257,2.27831,4.82686,0,1.53831-.56445,3.01801-1.58789,4.16368Z"/></svg>