<?xml version="1.0" encoding="UTF-8"?><svg class="icon" id="Layer_1" xmlns="http://www.w3.org/2000/svg" viewBox="0 0 24 24" fill="currentColor"><path d="M21.99665,14.08168c-.02734-1.47996-.2246-4.21527-1.23238-5.90763-.20214-.33984-.58201-.52685-.98239-.48095-.39354.04883-.72068.32568-.83493.70556-.19628.65575-.36034,1.11327-.624,1.52928-.4287-4.04682-2.77628-7.3998-6.89236-9.79235-.34227-.19873-.76853-.17773-1.08883.05469-.3203.23193-.47362.63085-.39159,1.01756.53807,2.53903-.45604,3.8476-1.71479,5.50481-.86472,1.13914-1.80805,2.38083-2.28118,4.10346-.29345-.60009-.53172-1.21434-.69187-1.74949-.11377-.37988-.44139-.65673-.83542-.70556-.38817-.04199-.77781.14013-.98141.48095-.90866,1.52488-1.40718,3.33687-1.44234,5.24016-.05908,3.2397.71189,5.62932,2.35637,7.30508,1.63691,1.66709,4.04833,2.51077,7.33881,2.59152.08795.00482.18603.0127.26397.01538.0957.00391.18945.00586.28124.00586.0924,0,.17462-.01062.26336-.01453,3.23104-.0473,5.58307-.84911,7.16658-2.46103,1.62397-1.6533,2.38371-4.08783,2.32317-7.44277ZM10.97064,21.91116c-1.06686-.13965-1.88763-.78124-2.25237-1.75974-.3745-1.00487-.19433-1.853.60057-2.769,1.3442-1.54832,2.54972-2.93648,3.06435-5.30803,1.4438,2.09909,2.24749,4.10688,2.60392,6.43106.11816.58739.04199,1.8281-.66795,2.65719-.4948.57873-1.23354.85479-2.19292.82976-.09802-.00043-.18853-.00635-.28466-.00818-.28716-.01465-.61613-.03943-.87094-.07306ZM16.58075,21.24699c.46245-1.07329.54661-2.2435.37505-3.09017-.50975-3.33052-1.91107-6.20597-4.54429-9.3236-.26952-.31982-.71043-.43652-1.10446-.29541-.39354.14258-.65672.51513-.65965.93358-.02344,3.35689-1.14352,4.64691-2.85538,6.61905-1.25173,1.44242-1.57319,3.02846-.96164,4.7135-.38805-.23761-.73881-.50707-1.04367-.81755-1.24898-1.27293-1.83246-3.19234-1.78363-5.8676.01318-.74169.11181-1.46385.29003-2.14938.44725.86571,1.00583,1.71189,1.65815,2.3613.29149.29004.73191.37304,1.10983.20605.37743-.16699.61326-.54784.59471-.95995-.12011-2.63619.99362-4.10199,2.17229-5.65422,1.00973-1.32957,2.12298-2.79488,2.25628-4.95696,3.11758,2.36911,4.55503,5.46721,4.27672,9.23327-.0293.39404.17578.76806.5244.95507.34765.18701.77244.15137,1.0859-.09131.81443-.63183,1.36714-1.1494,1.77631-1.68357.14355.80614.23046,1.73923.24902,2.73922.05078,2.79-.52147,4.75433-1.74994,6.00431-.45366.46185-1.00863.83483-1.66602,1.12437Z"/></svg>