<?xml version="1.0" encoding="UTF-8" standalone="no"?>
<!DOCTYPE svg PUBLIC "-//W3C//DTD SVG 1.1//EN" "http://www.w3.org/Graphics/SVG/1.1/DTD/svg11.dtd">
<svg viewBox="0 0 478 584" version="1.1" xmlns="http://www.w3.org/2000/svg" xmlns:xlink="http://www.w3.org/1999/xlink" xml:space="preserve" fill="currentColor">
    <g transform="matrix(-1,0,0,1,478,0)">
        <path d="M154.81,315.56C154.826,315.584 154.845,315.604 154.868,315.621C154.97,315.696 155.112,315.677 155.184,315.58C155.201,315.556 155.214,315.529 155.22,315.5C156.22,311.56 156.87,309.15 157.29,305.43C158.45,295.15 159.003,280.673 158.95,262C158.743,188.887 158.603,136.993 158.53,106.32C158.517,98.687 159.003,93.357 159.99,90.33C167.34,67.73 196.03,60.86 212.78,77.94C218.513,83.793 221.457,91.147 221.61,100C221.81,111.467 222.02,145.043 222.24,200.73C222.24,201.95 221.79,204.18 221.73,205.76C221.73,205.763 221.73,205.765 221.73,205.768C221.73,206.026 221.942,206.238 222.2,206.238C222.339,206.238 222.471,206.176 222.56,206.07C230.88,195.75 243.96,190.94 256.85,194.86C267.56,198.11 275.29,206.24 278.33,217C279.817,222.26 280.5,226.78 280.38,230.56C280.313,232.487 280.327,234.087 280.42,235.36C280.431,235.505 280.554,235.618 280.699,235.618C280.785,235.618 280.867,235.578 280.92,235.51C287.967,226.263 297.373,222.047 309.14,222.86C314.607,223.24 319.527,224.963 323.9,228.03C330.34,232.54 336.84,240.41 338.33,248.43C339.323,253.757 339.653,259.23 339.32,264.85C339.319,264.862 339.318,264.874 339.318,264.886C339.318,265.089 339.485,265.256 339.688,265.256C339.808,265.256 339.921,265.198 339.99,265.1C346.58,256.42 358.3,253.25 368.92,254.18C389.39,255.98 397.89,274.81 397.98,293.52C398.06,311.18 397.7,328.51 398.37,346.49C399.6,379.73 399.15,413.74 384,443.73C380.427,450.803 375.617,456.83 369.57,461.81C363.597,466.73 358.857,470.99 355.35,474.59C354.16,475.81 353.71,477.1 353.68,478.94C353.38,500.527 353.167,520.857 353.04,539.93C353.035,540.266 352.761,540.54 352.43,540.54L178.81,540.54C178.446,540.54 178.145,540.239 178.14,539.87C178.007,527.757 177.53,515.633 176.71,503.5C176.163,495.36 175.043,487.407 173.35,479.64C171.98,473.34 169.84,469.57 165.07,464.16C143.757,439.973 124.167,413.74 106.3,385.46C92.527,363.667 79.023,340.17 65.79,314.97C60.27,304.45 56.67,294.18 54.99,284.16C53.21,273.52 57.33,264.09 65.98,257.17C78.27,247.34 97.67,247.99 109.51,258.94C111.79,261.047 114.783,264.297 118.49,268.69C131.91,284.58 144.28,299.21 154.81,315.56Z"/>
    </g>
</svg>
