<?xml version="1.0" encoding="UTF-8"?><svg id="Layer_1" xmlns="http://www.w3.org/2000/svg" viewBox="0 0 24 24"><path d="M23.25,11.03223l-5.64685-1.45825,2.59802-4.40601c.23145-.39258.16797-.89258-.1543-1.21484-.32227-.32129-.82227-.38672-1.21484-.1543l-4.40588,2.5979-1.45789-5.64673c-.11377-.44141-.51221-.75-.96826-.75s-.85449.30859-.96826.75l-1.45789,5.64673-4.40588-2.5979c-.39258-.2334-.89355-.16699-1.21484.1543-.32275.32227-.38623.82227-.1543,1.21484l2.59802,4.40601-5.64685,1.45825c-.44141.11328-.75.51172-.75.96777s.30859.85449.75.96777l5.64648,1.45819-2.59766,4.40607c-.23193.39258-.16797.89258.1543,1.21484.19287.19238.44873.29297.70752.29297.17383,0,.34961-.04492.50732-.13867l4.40588-2.5979,1.45789,5.64673c.11377.44141.51221.75.96826.75s.85449-.30859.96826-.75l1.45789-5.64673,4.40588,2.5979c.1582.09375.33301.13867.50781.13867.25879,0,.51465-.10059.70703-.29297.32227-.32227.38574-.82227.1543-1.21484l-2.59802-4.40601,5.64685-1.45825c.44141-.11328.75-.51172.75-.96777s-.30859-.85449-.75-.96777ZM16.51074,7.48926l-.92236,1.56439-.51025-.13177-.13177-.51031,1.56439-.9223ZM7.48926,7.48926l1.56439.9223-.13177.51031-.51025.13177-.92236-1.56439ZM7.48877,16.51074l.92242-1.56451.51068.1319.13171.51019-1.56482.92242ZM16.51074,16.51074l-1.56439-.9223.13177-.51031.51025-.13177.92236,1.56439ZM14.00684,13.28809c-.35254.0918-.62695.36621-.71875.71875l-1.28809,4.99219-1.28906-4.99219c-.09082-.35254-.36621-.62695-.71826-.71777l-4.9917-1.28906,4.9917-1.28906c.35205-.09082.62744-.36523.71826-.71777l1.28906-4.99219,1.28809,4.99219c.0918.35254.36621.62695.71875.71875l4.99219,1.28809-4.99219,1.28809Z"/></svg>