<?xml version="1.0" encoding="UTF-8"?><svg id="Layer_1" xmlns="http://www.w3.org/2000/svg" viewBox="0 0 24 24"><path d="M23.70013,10.28632L14.01849.78265c-1.15137-1.04675-2.88574-1.04871-4.06445.02539L.29932,10.28632c-.39404.38763-.3999,1.02039-.0127,1.41388.1958.2002.45459.2998.71338.2998.25293,0,.50586-.0957.70068-.28613l1.29932-1.27576v10.41931c0,1.73242,1.3457,3.14258,3,3.14258h12c1.6543,0,3-1.41016,3-3.14258v-10.41956l1.29974,1.276c.39258.38477,1.02539.38184,1.41406-.01367.38672-.39349.38086-1.02625-.01367-1.41388ZM19,20.85742c0,.62988-.44824,1.14258-1,1.14258H6c-.55127,0-1-.5127-1-1.14258v-12.38306l6.32806-6.21338c.3833-.34863.96143-.34766,1.31689-.02539l6.35504,6.23883v12.383Z"/></svg>