<?xml version="1.0" encoding="UTF-8"?><svg id="Layer_1" xmlns="http://www.w3.org/2000/svg" viewBox="0 0 24 24"><path d="M13,1C7.38422,1,2.74597,5.23273,2.08795,10.67389l-.38092-.38092c-.39062-.39062-1.02344-.39062-1.41406,0s-.39062,1.02344,0,1.41406l2,2c.19531.19531.45117.29297.70703.29297s.51172-.09766.70703-.29297l2-2c.39062-.39062.39062-1.02344,0-1.41406s-1.02344-.39062-1.41406,0l-.14856.14856c.74139-4.22119,4.42554-7.44153,8.85559-7.44153,4.96289,0,9,4.03711,9,9s-4.03711,9-9,9c-3.36328,0-6.42139-1.85254-7.98096-4.83594-.25586-.48828-.86035-.68262-1.34961-.42188-.48926.25586-.67871.85938-.42285,1.34961,1.90576,3.64453,5.64307,5.9082,9.75342,5.9082,6.06543,0,11-4.93457,11-11S19.06543,1,13,1Z"/><path d="M13,5c-.55225,0-1,.44727-1,1v6c0,.13019.02661.25989.07715.38208.05078.12274.12408.23346.21667.32581l2.99915,2.99915c.19531.19531.45117.29297.70703.29297s.51172-.09766.70703-.29297c.39062-.39062.39062-1.02344,0-1.41406l-2.70703-2.70703v-5.58594c0-.55273-.44727-1-1-1Z"/></svg>