<?xml version="1.0" encoding="UTF-8"?><svg id="Layer_1" xmlns="http://www.w3.org/2000/svg" viewBox="0 0 32 32"><defs><style>.cls-1{fill:#19190e;}.cls-2{fill:#ec6b31;}</style></defs><rect x="4.2" y="14" width="17.2" height="16.5" rx="2.5" fill="#ffffff"/><path class="cls-2" d="M28.99607,23.57333c-.71467,3.15733-3.48801,4.48214-5.10294,4.94507v-9.74507c0-.25387-.10026-.49921-.2816-.6784l-5.33333-5.33333c-.17919-.18134-.42453-.2816-.6784-.2816h-6.64533c.0384-.15573.06186-.23893.06186-.23893,0,0,.14079-1.08799.10026-2.09493-.0512-1.3056-.52693-2.54934-.55039-2.61333.05759.0256.97493.48214,1.46987,1.44641.40319.78932.45439,2.00533.78293,2.01812.54186.01921,2.02667-3.30667,2.26773-6.13333.20479-2.41707-1.15628-4.864-1.15628-4.864,0,0,2.21228.48,5.19895,4.21333,3.16799,3.95947.56746,8.5952,2.64105,8.74026,2.44267.17068,1.62561-6.21652,1.62561-6.21652,0,0,2.31466,1.57227,2.96105,4.9152.43947,2.28053-1.32053,7.26827-.10667,7.41547,1.79628.21547,1.70667-3.8272,1.70667-3.8272,0,0,2.19734,3.2256,1.03895,8.3328Z"/><path class="cls-1" d="M7.78667,19.2h4.69333c.58906,0,1.06667-.4775,1.06667-1.06667s-.4776-1.06667-1.06667-1.06667h-4.69333c-.58906,0-1.06667.4775-1.06667,1.06667s.4776,1.06667,1.06667,1.06667Z"/><path class="cls-1" d="M17.81333,21.12H7.78667c-.58906,0-1.06667.4775-1.06667,1.06667s.4776,1.06667,1.06667,1.06667h10.02667c.58917,0,1.06667-.4775,1.06667-1.06667s-.4775-1.06667-1.06667-1.06667Z"/><path class="cls-1" d="M17.81333,25.17333H7.78667c-.58906,0-1.06667.4775-1.06667,1.06667s.4776,1.06667,1.06667,1.06667h10.02667c.58917,0,1.06667-.4775,1.06667-1.06667s-.4775-1.06667-1.06667-1.06667Z"/><path class="cls-1" d="M23.6875,18.01917l-5.33333-5.33344c-.2-.2-.47125-.3124-.75417-.3124H5.86667c-1.76448,0-3.2,1.43552-3.2,3.2v13.22667c0,1.76458,1.43552,3.2,3.2,3.2h14.93333c1.76458,0,3.2-1.43542,3.2-3.2v-10.02667c0-.28292-.11229-.55417-.3125-.75417ZM17.81333,15.16187l3.39812,3.39813h-2.33146c-.58813,0-1.06667-.47854-1.06667-1.06667v-2.33146ZM20.8,29.86667H5.86667c-.58813,0-1.06667-.47854-1.06667-1.06667v-13.22667c0-.58813.47854-1.06667,1.06667-1.06667h9.81333v2.98667c0,1.76458,1.43542,3.2,3.2,3.2h2.98667v8.10667c0,.58813-.47854,1.06667-1.06667,1.06667Z"/></svg>