<?xml version="1.0" encoding="UTF-8"?><svg id="Layer_1" xmlns="http://www.w3.org/2000/svg" viewBox="0 0 125 150"><defs><style>.cls-1{fill:#19190e;}.cls-2{fill:#ec6b31;}</style></defs><path class="cls-2" d="M123.41906,110.5c-3.35004,14.79999-16.35004,21.01001-23.92004,23.17999v-45.67999c0-1.19-.46997-2.34003-1.32001-3.17999l-25-25c-.83997-.85004-1.98999-1.32001-3.17999-1.32001h-31.14996c.17999-.72998.28998-1.12.28998-1.12,0,0,.65997-5.09998.46997-9.82001-.23999-6.12-2.46997-11.95001-2.57996-12.25.26996.12,4.57001,2.26001,6.89001,6.78003,1.88995,3.69995,2.12994,9.39996,3.66998,9.45996,2.53998.09003,9.5-15.5,10.63-28.75.95996-11.33002-5.42004-22.79999-5.42004-22.79999,0,0,10.37006,2.25,24.37006,19.75,14.84998,18.56,2.65997,40.28998,12.37994,40.96997,11.45001.80005,7.62006-29.13995,7.62006-29.13995,0,0,10.84998,7.37,13.87994,23.03998,2.06,10.69-6.19,34.07001-.5,34.76001,8.42004,1.01001,8-17.94,8-17.94,0,0,10.30005,15.12,4.87006,39.06Z"/><path class="cls-1" d="M24,90h22c2.76123,0,5-2.23828,5-5s-2.23877-5-5-5h-22c-2.76123,0-5,2.23828-5,5s2.23877,5,5,5Z"/><path class="cls-1" d="M71,99H24c-2.76123,0-5,2.23828-5,5s2.23877,5,5,5h47c2.76172,0,5-2.23828,5-5s-2.23828-5-5-5Z"/><path class="cls-1" d="M71,118H24c-2.76123,0-5,2.23828-5,5s2.23877,5,5,5h47c2.76172,0,5-2.23828,5-5s-2.23828-5-5-5Z"/><path class="cls-1" d="M98.53516,84.46484l-25-25.00049c-.9375-.9375-2.20898-1.46436-3.53516-1.46436H15c-8.271,0-15,6.729-15,15v62c0,8.27148,6.729,15,15,15h70c8.27148,0,15-6.72852,15-15v-47c0-1.32617-.52637-2.59766-1.46484-3.53516ZM71,71.07129l15.92871,15.92871h-10.92871c-2.75684,0-5-2.24316-5-5v-10.92871ZM85,140H15c-2.75684,0-5-2.24316-5-5v-62c0-2.75684,2.24316-5,5-5h46v14c0,8.27148,6.72852,15,15,15h14v38c0,2.75684-2.24316,5-5,5Z"/></svg>